<svg width="10400" height="7400" viewBox="0 0 10400 7400" fill="none" xmlns="http://www.w3.org/2000/svg">
<g clip-path="url(#clip0_2_63)">
<path d="M10464 -46H64V7354H10464V-46Z" fill="#00C100"/>
<path d="M10059 359H459V6959H10059V359Z" fill="#00B000"/>
<path d="M9733.29 684.244H772.708C764.72 684.244 758.244 690.72 758.244 698.708V6659.29C758.244 6667.28 764.72 6673.76 772.708 6673.76H9733.29C9741.28 6673.76 9747.76 6667.28 9747.76 6659.29V698.708C9747.76 690.72 9741.28 684.244 9733.29 684.244Z" fill="#00AA00" stroke="white" stroke-width="10.4885" stroke-miterlimit="0" stroke-linecap="square" stroke-dasharray="20.98 10.49"/>
<path d="M5258 684H5248V6684H5258V684Z" fill="white"/>
<path d="M5253 4154C5527.88 4154 5750.71 3931.17 5750.71 3656.29C5750.71 3381.41 5527.88 3158.58 5253 3158.58C4978.12 3158.58 4755.29 3381.41 4755.29 3656.29C4755.29 3931.17 4978.12 4154 5253 4154Z" stroke="white" stroke-width="10"/>
<path d="M9751 3654H751V3664H9751V3654Z" fill="white"/>
<path d="M1747.62 2661.78H762.816C760.156 2661.78 758 2663.94 758 2666.6V4651.4C758 4654.06 760.156 4656.22 762.816 4656.22H1747.62C1750.28 4656.22 1752.43 4654.06 1752.43 4651.4V2666.6C1752.43 2663.94 1750.28 2661.78 1747.62 2661.78Z" stroke="white" stroke-width="10" stroke-miterlimit="0" stroke-linecap="square" stroke-dasharray="20 10"/>
<path d="M9743.62 2661.78H8758.82C8756.16 2661.78 8754 2663.94 8754 2666.6V4651.4C8754 4654.06 8756.16 4656.22 8758.82 4656.22H9743.62C9746.28 4656.22 9748.43 4654.06 9748.43 4651.4V2666.6C9748.43 2663.94 9746.28 2661.78 9743.62 2661.78Z" stroke="white" stroke-width="10" stroke-miterlimit="0" stroke-linecap="square" stroke-dasharray="20 10"/>
<path d="M3159.84 699.187V6659.05" stroke="black" stroke-width="15"/>
<path d="M772.697 1281.66H9731.97" stroke="black" stroke-width="15"/>
<path d="M4877.91 3344.12L5624.98 3972.03" stroke="black" stroke-width="12.5"/>
<path d="M136.711 7339.12V-21.1206" stroke="black" stroke-width="15"/>
<path d="M79.8608 279.301H10436.7" stroke="black" stroke-width="15.7081"/>
<path d="M9731 6322H10413.4" stroke="black" stroke-width="10"/>
<path d="M9741 6032H10058.3" stroke="black" stroke-width="10.0926"/>
<path d="M753 3139H553V3159H753V3139Z" fill="#806400"/>
<path d="M753 4159H553V4179H753V4159Z" fill="#806400"/>
<path d="M573 3159H553V4159H573V3159Z" fill="#806400"/>
<path d="M9753 3139H9953V3159H9753V3139Z" fill="#806400"/>
<path d="M9753 4159H9953V4179H9753V4159Z" fill="#806400"/>
<path d="M9933 3159H9953V4159H9933V3159Z" fill="#806400"/>
<path d="M617.421 3172.22V4145.54" stroke="black" stroke-width="10.0902"/>
<path d="M4268.08 6508.5V6663.81" stroke="black" stroke-width="10"/>
<path d="M4268.28 6856.25V6700.93" stroke="black" stroke-width="10"/>
<path d="M3663.52 67.6978V210.667H3645.46V90.2563L3609.03 103.538V87.229L3660.69 67.6978H3663.52ZM3805.91 128.245V149.924C3805.91 161.578 3804.87 171.409 3802.78 179.417C3800.7 187.424 3797.7 193.87 3793.8 198.752C3789.89 203.635 3785.17 207.183 3779.64 209.397C3774.17 211.545 3767.98 212.62 3761.08 212.62C3755.61 212.62 3750.57 211.936 3745.95 210.569C3741.32 209.202 3737.16 207.021 3733.45 204.026C3729.8 200.966 3726.68 196.995 3724.07 192.112C3721.47 187.229 3719.48 181.305 3718.11 174.338C3716.75 167.372 3716.06 159.234 3716.06 149.924V128.245C3716.06 116.591 3717.11 106.825 3719.19 98.9478C3721.34 91.0701 3724.36 84.755 3728.27 80.0024C3732.18 75.1847 3736.86 71.7342 3742.33 69.6509C3747.87 67.5675 3754.05 66.5259 3760.89 66.5259C3766.42 66.5259 3771.5 67.2095 3776.12 68.5767C3780.81 69.8787 3784.98 71.9946 3788.62 74.9243C3792.27 77.7889 3795.36 81.63 3797.9 86.4478C3800.5 91.2004 3802.49 97.0272 3803.86 103.928C3805.22 110.829 3805.91 118.935 3805.91 128.245ZM3787.74 152.854V125.217C3787.74 118.837 3787.35 113.238 3786.57 108.42C3785.86 103.538 3784.78 99.3709 3783.35 95.9204C3781.92 92.4699 3780.09 89.6704 3777.88 87.522C3775.73 85.3735 3773.23 83.811 3770.36 82.8345C3767.56 81.7928 3764.4 81.272 3760.89 81.272C3756.59 81.272 3752.78 82.0858 3749.46 83.7134C3746.14 85.2759 3743.34 87.7824 3741.06 91.2329C3738.85 94.6834 3737.16 99.2082 3735.99 104.807C3734.81 110.406 3734.23 117.209 3734.23 125.217V152.854C3734.23 159.234 3734.59 164.866 3735.3 169.749C3736.08 174.631 3737.22 178.863 3738.72 182.444C3740.22 185.959 3742.04 188.857 3744.19 191.135C3746.34 193.414 3748.81 195.107 3751.61 196.213C3754.48 197.255 3757.63 197.776 3761.08 197.776C3765.51 197.776 3769.38 196.93 3772.7 195.237C3776.02 193.544 3778.79 190.907 3781.01 187.327C3783.28 183.681 3784.98 179.026 3786.08 173.362C3787.19 167.633 3787.74 160.797 3787.74 152.854ZM3925.24 162.815V177.659H3822.51V167.014L3886.18 68.479H3900.93L3885.11 96.9946L3843.02 162.815H3925.24ZM3905.42 68.479V210.667H3887.35V68.479H3905.42ZM4030.91 128.245V149.924C4030.91 161.578 4029.87 171.409 4027.78 179.417C4025.7 187.424 4022.7 193.87 4018.8 198.752C4014.89 203.635 4010.17 207.183 4004.64 209.397C3999.17 211.545 3992.98 212.62 3986.08 212.62C3980.61 212.62 3975.57 211.936 3970.95 210.569C3966.32 209.202 3962.16 207.021 3958.45 204.026C3954.8 200.966 3951.68 196.995 3949.07 192.112C3946.47 187.229 3944.48 181.305 3943.11 174.338C3941.75 167.372 3941.06 159.234 3941.06 149.924V128.245C3941.06 116.591 3942.11 106.825 3944.19 98.9478C3946.34 91.0701 3949.36 84.755 3953.27 80.0024C3957.18 75.1847 3961.86 71.7342 3967.33 69.6509C3972.87 67.5675 3979.05 66.5259 3985.89 66.5259C3991.42 66.5259 3996.5 67.2095 4001.12 68.5767C4005.81 69.8787 4009.98 71.9946 4013.62 74.9243C4017.27 77.7889 4020.36 81.63 4022.9 86.4478C4025.5 91.2004 4027.49 97.0272 4028.86 103.928C4030.22 110.829 4030.91 118.935 4030.91 128.245ZM4012.74 152.854V125.217C4012.74 118.837 4012.35 113.238 4011.57 108.42C4010.86 103.538 4009.78 99.3709 4008.35 95.9204C4006.92 92.4699 4005.09 89.6704 4002.88 87.522C4000.73 85.3735 3998.23 83.811 3995.36 82.8345C3992.56 81.7928 3989.4 81.272 3985.89 81.272C3981.59 81.272 3977.78 82.0858 3974.46 83.7134C3971.14 85.2759 3968.34 87.7824 3966.06 91.2329C3963.85 94.6834 3962.16 99.2082 3960.99 104.807C3959.81 110.406 3959.23 117.209 3959.23 125.217V152.854C3959.23 159.234 3959.59 164.866 3960.3 169.749C3961.08 174.631 3962.22 178.863 3963.72 182.444C3965.22 185.959 3967.04 188.857 3969.19 191.135C3971.34 193.414 3973.81 195.107 3976.61 196.213C3979.48 197.255 3982.63 197.776 3986.08 197.776C3990.51 197.776 3994.38 196.93 3997.7 195.237C4001.02 193.544 4003.79 190.907 4006.01 187.327C4008.28 183.681 4009.98 179.026 4011.08 173.362C4012.19 167.633 4012.74 160.797 4012.74 152.854ZM4143.41 128.245V149.924C4143.41 161.578 4142.37 171.409 4140.28 179.417C4138.2 187.424 4135.2 193.87 4131.3 198.752C4127.39 203.635 4122.67 207.183 4117.14 209.397C4111.67 211.545 4105.48 212.62 4098.58 212.62C4093.11 212.62 4088.07 211.936 4083.45 210.569C4078.82 209.202 4074.66 207.021 4070.95 204.026C4067.3 200.966 4064.18 196.995 4061.57 192.112C4058.97 187.229 4056.98 181.305 4055.61 174.338C4054.25 167.372 4053.56 159.234 4053.56 149.924V128.245C4053.56 116.591 4054.61 106.825 4056.69 98.9478C4058.84 91.0701 4061.86 84.755 4065.77 80.0024C4069.68 75.1847 4074.36 71.7342 4079.83 69.6509C4085.37 67.5675 4091.55 66.5259 4098.39 66.5259C4103.92 66.5259 4109 67.2095 4113.62 68.5767C4118.31 69.8787 4122.48 71.9946 4126.12 74.9243C4129.77 77.7889 4132.86 81.63 4135.4 86.4478C4138 91.2004 4139.99 97.0272 4141.36 103.928C4142.72 110.829 4143.41 118.935 4143.41 128.245ZM4125.24 152.854V125.217C4125.24 118.837 4124.85 113.238 4124.07 108.42C4123.36 103.538 4122.28 99.3709 4120.85 95.9204C4119.42 92.4699 4117.59 89.6704 4115.38 87.522C4113.23 85.3735 4110.73 83.811 4107.86 82.8345C4105.06 81.7928 4101.9 81.272 4098.39 81.272C4094.09 81.272 4090.28 82.0858 4086.96 83.7134C4083.64 85.2759 4080.84 87.7824 4078.56 91.2329C4076.35 94.6834 4074.66 99.2082 4073.49 104.807C4072.31 110.406 4071.73 117.209 4071.73 125.217V152.854C4071.73 159.234 4072.09 164.866 4072.8 169.749C4073.58 174.631 4074.72 178.863 4076.22 182.444C4077.72 185.959 4079.54 188.857 4081.69 191.135C4083.84 193.414 4086.31 195.107 4089.11 196.213C4091.98 197.255 4095.13 197.776 4098.58 197.776C4103.01 197.776 4106.88 196.93 4110.2 195.237C4113.52 193.544 4116.29 190.907 4118.51 187.327C4120.78 183.681 4122.48 179.026 4123.58 173.362C4124.69 167.633 4125.24 160.797 4125.24 152.854Z" fill="black"/>
<path d="M164.816 1997.02H174.973L307.004 2055.91V2074.95L179.66 2016.16V2093.11H164.816V1997.02ZM259.152 1880.32H273.996V1983.06H263.352L164.816 1919.38V1904.64L193.332 1920.46L259.152 1962.55V1880.32ZM164.816 1900.15H307.004V1918.21H164.816V1900.15ZM224.582 1774.66H246.262C257.915 1774.66 267.746 1775.7 275.754 1777.78C283.762 1779.87 290.207 1782.86 295.09 1786.77C299.973 1790.67 303.521 1795.39 305.734 1800.93C307.883 1806.4 308.957 1812.58 308.957 1819.48C308.957 1824.95 308.273 1830 306.906 1834.62C305.539 1839.24 303.358 1843.41 300.363 1847.12C297.303 1850.76 293.332 1853.89 288.449 1856.49C283.566 1859.1 277.642 1861.08 270.676 1862.45C263.71 1863.82 255.572 1864.5 246.262 1864.5H224.582C212.928 1864.5 203.163 1863.46 195.285 1861.38C187.408 1859.23 181.092 1856.2 176.34 1852.29C171.522 1848.39 168.072 1843.7 165.988 1838.23C163.905 1832.7 162.863 1826.51 162.863 1819.68C162.863 1814.14 163.547 1809.06 164.914 1804.44C166.216 1799.75 168.332 1795.59 171.262 1791.94C174.126 1788.3 177.967 1785.2 182.785 1782.67C187.538 1780.06 193.365 1778.08 200.266 1776.71C207.167 1775.34 215.272 1774.66 224.582 1774.66ZM249.191 1792.82H221.555C215.174 1792.82 209.576 1793.21 204.758 1793.99C199.875 1794.71 195.708 1795.78 192.258 1797.22C188.807 1798.65 186.008 1800.47 183.859 1802.68C181.711 1804.83 180.148 1807.34 179.172 1810.2C178.13 1813 177.609 1816.16 177.609 1819.68C177.609 1823.97 178.423 1827.78 180.051 1831.1C181.613 1834.42 184.12 1837.22 187.57 1839.5C191.021 1841.71 195.546 1843.41 201.145 1844.58C206.743 1845.75 213.547 1846.34 221.555 1846.34H249.191C255.572 1846.34 261.203 1845.98 266.086 1845.26C270.969 1844.48 275.201 1843.34 278.781 1841.84C282.297 1840.35 285.194 1838.52 287.473 1836.38C289.751 1834.23 291.444 1831.75 292.551 1828.95C293.592 1826.09 294.113 1822.93 294.113 1819.48C294.113 1815.05 293.267 1811.18 291.574 1807.86C289.882 1804.54 287.245 1801.77 283.664 1799.56C280.018 1797.28 275.363 1795.59 269.699 1794.48C263.97 1793.37 257.134 1792.82 249.191 1792.82ZM224.582 1662.16H246.262C257.915 1662.16 267.746 1663.2 275.754 1665.28C283.762 1667.37 290.207 1670.36 295.09 1674.27C299.973 1678.17 303.521 1682.89 305.734 1688.43C307.883 1693.9 308.957 1700.08 308.957 1706.98C308.957 1712.45 308.273 1717.5 306.906 1722.12C305.539 1726.74 303.358 1730.91 300.363 1734.62C297.303 1738.26 293.332 1741.39 288.449 1743.99C283.566 1746.6 277.642 1748.58 270.676 1749.95C263.71 1751.32 255.572 1752 246.262 1752H224.582C212.928 1752 203.163 1750.96 195.285 1748.88C187.408 1746.73 181.092 1743.7 176.34 1739.79C171.522 1735.89 168.072 1731.2 165.988 1725.73C163.905 1720.2 162.863 1714.01 162.863 1707.18C162.863 1701.64 163.547 1696.56 164.914 1691.94C166.216 1687.25 168.332 1683.09 171.262 1679.44C174.126 1675.8 177.967 1672.7 182.785 1670.17C187.538 1667.56 193.365 1665.58 200.266 1664.21C207.167 1662.84 215.272 1662.16 224.582 1662.16ZM249.191 1680.32H221.555C215.174 1680.32 209.576 1680.71 204.758 1681.49C199.875 1682.21 195.708 1683.28 192.258 1684.72C188.807 1686.15 186.008 1687.97 183.859 1690.18C181.711 1692.33 180.148 1694.84 179.172 1697.7C178.13 1700.5 177.609 1703.66 177.609 1707.18C177.609 1711.47 178.423 1715.28 180.051 1718.6C181.613 1721.92 184.12 1724.72 187.57 1727C191.021 1729.21 195.546 1730.91 201.145 1732.08C206.743 1733.25 213.547 1733.84 221.555 1733.84H249.191C255.572 1733.84 261.203 1733.48 266.086 1732.76C270.969 1731.98 275.201 1730.84 278.781 1729.34C282.297 1727.85 285.194 1726.02 287.473 1723.88C289.751 1721.73 291.444 1719.25 292.551 1716.45C293.592 1713.59 294.113 1710.43 294.113 1706.98C294.113 1702.55 293.267 1698.68 291.574 1695.36C289.882 1692.04 287.245 1689.27 283.664 1687.06C280.018 1684.78 275.363 1683.09 269.699 1681.98C263.97 1680.87 257.134 1680.32 249.191 1680.32Z" fill="black"/>
<path d="M3880.45 1512.2H3882.31C3892.72 1512.2 3901.19 1510.73 3907.7 1507.8C3914.21 1504.87 3919.22 1500.93 3922.74 1495.99C3926.25 1491.04 3928.66 1485.47 3929.96 1479.29C3931.27 1473.04 3931.92 1466.62 3931.92 1460.05V1438.27C3931.92 1431.83 3931.17 1426.1 3929.67 1421.08C3928.24 1416.07 3926.22 1411.87 3923.62 1408.49C3921.08 1405.1 3918.18 1402.53 3914.92 1400.77C3911.67 1399.01 3908.22 1398.13 3904.57 1398.13C3900.41 1398.13 3896.66 1398.98 3893.34 1400.67C3890.09 1402.3 3887.32 1404.61 3885.04 1407.61C3882.83 1410.6 3881.14 1414.12 3879.96 1418.15C3878.79 1422.19 3878.21 1426.58 3878.21 1431.34C3878.21 1435.57 3878.73 1439.67 3879.77 1443.64C3880.81 1447.61 3882.41 1451.19 3884.55 1454.38C3886.7 1457.57 3889.37 1460.11 3892.56 1462C3895.82 1463.82 3899.63 1464.74 3903.99 1464.74C3908.02 1464.74 3911.8 1463.95 3915.32 1462.39C3918.9 1460.76 3922.05 1458.58 3924.79 1455.85C3927.59 1453.05 3929.8 1449.89 3931.43 1446.38C3933.12 1442.86 3934.1 1439.18 3934.36 1435.34H3942.95C3942.95 1440.74 3941.88 1446.08 3939.73 1451.36C3937.65 1456.56 3934.72 1461.32 3930.94 1465.61C3927.16 1469.91 3922.74 1473.36 3917.66 1475.97C3912.58 1478.5 3907.05 1479.77 3901.06 1479.77C3894.03 1479.77 3887.94 1478.41 3882.8 1475.67C3877.65 1472.94 3873.42 1469.29 3870.1 1464.74C3866.85 1460.18 3864.4 1455.1 3862.78 1449.5C3861.21 1443.84 3860.43 1438.11 3860.43 1432.31C3860.43 1425.54 3861.38 1419.19 3863.26 1413.27C3865.15 1407.35 3867.95 1402.14 3871.66 1397.65C3875.37 1393.09 3879.96 1389.54 3885.43 1387C3890.97 1384.46 3897.35 1383.19 3904.57 1383.19C3912.71 1383.19 3919.64 1384.82 3925.37 1388.08C3931.1 1391.33 3935.76 1395.69 3939.34 1401.16C3942.98 1406.63 3945.65 1412.78 3947.35 1419.62C3949.04 1426.45 3949.89 1433.49 3949.89 1440.71V1447.25C3949.89 1454.61 3949.4 1462.1 3948.42 1469.72C3947.51 1477.27 3945.72 1484.49 3943.05 1491.4C3940.45 1498.3 3936.64 1504.48 3931.62 1509.95C3926.61 1515.35 3920.07 1519.65 3911.99 1522.84C3903.99 1525.97 3894.09 1527.53 3882.31 1527.53H3880.45V1512.2ZM4064.24 1444.91V1466.59C4064.24 1478.24 4063.2 1488.08 4061.12 1496.08C4059.03 1504.09 4056.04 1510.54 4052.13 1515.42C4048.23 1520.3 4043.51 1523.85 4037.97 1526.06C4032.5 1528.21 4026.32 1529.29 4019.42 1529.29C4013.95 1529.29 4008.9 1528.6 4004.28 1527.24C3999.66 1525.87 3995.49 1523.69 3991.78 1520.69C3988.13 1517.63 3985.01 1513.66 3982.41 1508.78C3979.8 1503.9 3977.82 1497.97 3976.45 1491C3975.08 1484.04 3974.4 1475.9 3974.4 1466.59V1444.91C3974.4 1433.26 3975.44 1423.49 3977.52 1415.61C3979.67 1407.74 3982.7 1401.42 3986.6 1396.67C3990.51 1391.85 3995.2 1388.4 4000.67 1386.32C4006.2 1384.23 4012.39 1383.19 4019.22 1383.19C4024.76 1383.19 4029.83 1383.88 4034.46 1385.24C4039.14 1386.55 4043.31 1388.66 4046.96 1391.59C4050.6 1394.46 4053.69 1398.3 4056.23 1403.11C4058.84 1407.87 4060.82 1413.69 4062.19 1420.59C4063.56 1427.5 4064.24 1435.6 4064.24 1444.91ZM4046.08 1469.52V1441.88C4046.08 1435.5 4045.69 1429.9 4044.91 1425.09C4044.19 1420.2 4043.11 1416.04 4041.68 1412.59C4040.25 1409.14 4038.43 1406.34 4036.21 1404.19C4034.07 1402.04 4031.56 1400.48 4028.69 1399.5C4025.89 1398.46 4022.74 1397.94 4019.22 1397.94C4014.92 1397.94 4011.12 1398.75 4007.8 1400.38C4004.48 1401.94 4001.68 1404.45 3999.4 1407.9C3997.18 1411.35 3995.49 1415.87 3994.32 1421.47C3993.15 1427.07 3992.56 1433.88 3992.56 1441.88V1469.52C3992.56 1475.9 3992.92 1481.53 3993.64 1486.42C3994.42 1491.3 3995.56 1495.53 3997.05 1499.11C3998.55 1502.63 4000.37 1505.52 4002.52 1507.8C4004.67 1510.08 4007.14 1511.77 4009.94 1512.88C4012.81 1513.92 4015.97 1514.44 4019.42 1514.44C4023.84 1514.44 4027.72 1513.6 4031.04 1511.9C4034.36 1510.21 4037.13 1507.57 4039.34 1503.99C4041.62 1500.35 4043.31 1495.69 4044.42 1490.03C4045.52 1484.3 4046.08 1477.46 4046.08 1469.52ZM4176.74 1444.91V1466.59C4176.74 1478.24 4175.7 1488.08 4173.62 1496.08C4171.53 1504.09 4168.54 1510.54 4164.63 1515.42C4160.73 1520.3 4156.01 1523.85 4150.47 1526.06C4145 1528.21 4138.82 1529.29 4131.92 1529.29C4126.45 1529.29 4121.4 1528.6 4116.78 1527.24C4112.16 1525.87 4107.99 1523.69 4104.28 1520.69C4100.63 1517.63 4097.51 1513.66 4094.91 1508.78C4092.3 1503.9 4090.32 1497.97 4088.95 1491C4087.58 1484.04 4086.9 1475.9 4086.9 1466.59V1444.91C4086.9 1433.26 4087.94 1423.49 4090.02 1415.61C4092.17 1407.74 4095.2 1401.42 4099.1 1396.67C4103.01 1391.85 4107.7 1388.4 4113.17 1386.32C4118.7 1384.23 4124.89 1383.19 4131.72 1383.19C4137.26 1383.19 4142.33 1383.88 4146.96 1385.24C4151.64 1386.55 4155.81 1388.66 4159.46 1391.59C4163.1 1394.46 4166.19 1398.3 4168.73 1403.11C4171.34 1407.87 4173.32 1413.69 4174.69 1420.59C4176.06 1427.5 4176.74 1435.6 4176.74 1444.91ZM4158.58 1469.52V1441.88C4158.58 1435.5 4158.19 1429.9 4157.41 1425.09C4156.69 1420.2 4155.61 1416.04 4154.18 1412.59C4152.75 1409.14 4150.93 1406.34 4148.71 1404.19C4146.57 1402.04 4144.06 1400.48 4141.19 1399.5C4138.39 1398.46 4135.24 1397.94 4131.72 1397.94C4127.42 1397.94 4123.62 1398.75 4120.3 1400.38C4116.98 1401.94 4114.18 1404.45 4111.9 1407.9C4109.68 1411.35 4107.99 1415.87 4106.82 1421.47C4105.65 1427.07 4105.06 1433.88 4105.06 1441.88V1469.52C4105.06 1475.9 4105.42 1481.53 4106.14 1486.42C4106.92 1491.3 4108.06 1495.53 4109.55 1499.11C4111.05 1502.63 4112.87 1505.52 4115.02 1507.8C4117.17 1510.08 4119.64 1511.77 4122.44 1512.88C4125.31 1513.92 4128.47 1514.44 4131.92 1514.44C4136.34 1514.44 4140.22 1513.6 4143.54 1511.9C4146.86 1510.21 4149.63 1507.57 4151.84 1503.99C4154.12 1500.35 4155.81 1495.69 4156.92 1490.03C4158.02 1484.3 4158.58 1477.46 4158.58 1469.52ZM4289.24 1444.91V1466.59C4289.24 1478.24 4288.2 1488.08 4286.12 1496.08C4284.03 1504.09 4281.04 1510.54 4277.13 1515.42C4273.23 1520.3 4268.51 1523.85 4262.97 1526.06C4257.5 1528.21 4251.32 1529.29 4244.42 1529.29C4238.95 1529.29 4233.9 1528.6 4229.28 1527.24C4224.66 1525.87 4220.49 1523.69 4216.78 1520.69C4213.13 1517.63 4210.01 1513.66 4207.41 1508.78C4204.8 1503.9 4202.82 1497.97 4201.45 1491C4200.08 1484.04 4199.4 1475.9 4199.4 1466.59V1444.91C4199.4 1433.26 4200.44 1423.49 4202.52 1415.61C4204.67 1407.74 4207.7 1401.42 4211.6 1396.67C4215.51 1391.85 4220.2 1388.4 4225.67 1386.32C4231.2 1384.23 4237.39 1383.19 4244.22 1383.19C4249.76 1383.19 4254.83 1383.88 4259.46 1385.24C4264.14 1386.55 4268.31 1388.66 4271.96 1391.59C4275.6 1394.46 4278.69 1398.3 4281.23 1403.11C4283.84 1407.87 4285.82 1413.69 4287.19 1420.59C4288.56 1427.5 4289.24 1435.6 4289.24 1444.91ZM4271.08 1469.52V1441.88C4271.08 1435.5 4270.69 1429.9 4269.91 1425.09C4269.19 1420.2 4268.11 1416.04 4266.68 1412.59C4265.25 1409.14 4263.43 1406.34 4261.21 1404.19C4259.07 1402.04 4256.56 1400.48 4253.69 1399.5C4250.89 1398.46 4247.74 1397.94 4244.22 1397.94C4239.92 1397.94 4236.12 1398.75 4232.8 1400.38C4229.48 1401.94 4226.68 1404.45 4224.4 1407.9C4222.18 1411.35 4220.49 1415.87 4219.32 1421.47C4218.15 1427.07 4217.56 1433.88 4217.56 1441.88V1469.52C4217.56 1475.9 4217.92 1481.53 4218.64 1486.42C4219.42 1491.3 4220.56 1495.53 4222.05 1499.11C4223.55 1502.63 4225.37 1505.52 4227.52 1507.8C4229.67 1510.08 4232.14 1511.77 4234.94 1512.88C4237.81 1513.92 4240.97 1514.44 4244.42 1514.44C4248.84 1514.44 4252.72 1513.6 4256.04 1511.9C4259.36 1510.21 4262.13 1507.57 4264.34 1503.99C4266.62 1500.35 4268.31 1495.69 4269.42 1490.03C4270.52 1484.3 4271.08 1477.46 4271.08 1469.52Z" fill="black"/>
<path d="M3340.15 2384.95H3341.71V2400.28H3340.15C3330.58 2400.28 3322.57 2401.84 3316.13 2404.97C3309.68 2408.03 3304.57 2412.16 3300.8 2417.37C3297.02 2422.52 3294.29 2428.31 3292.59 2434.76C3290.97 2441.2 3290.15 2447.74 3290.15 2454.38V2475.28C3290.15 2481.6 3290.9 2487.2 3292.4 2492.08C3293.9 2496.9 3295.95 2500.97 3298.55 2504.29C3301.15 2507.61 3304.08 2510.11 3307.34 2511.81C3310.66 2513.5 3314.11 2514.34 3317.69 2514.34C3321.86 2514.34 3325.57 2513.56 3328.82 2512C3332.08 2510.37 3334.81 2508.13 3337.03 2505.26C3339.31 2502.33 3341.03 2498.88 3342.2 2494.91C3343.38 2490.94 3343.96 2486.58 3343.96 2481.83C3343.96 2477.59 3343.44 2473.52 3342.4 2469.62C3341.36 2465.65 3339.76 2462.13 3337.61 2459.07C3335.46 2455.95 3332.76 2453.51 3329.51 2451.75C3326.32 2449.92 3322.51 2449.01 3318.08 2449.01C3313.07 2449.01 3308.38 2450.25 3304.02 2452.72C3299.72 2455.13 3296.17 2458.32 3293.38 2462.29C3290.64 2466.2 3289.08 2470.46 3288.69 2475.09L3279.12 2474.99C3280.03 2467.7 3281.72 2461.48 3284.2 2456.34C3286.73 2451.13 3289.86 2446.9 3293.57 2443.64C3297.35 2440.32 3301.55 2437.91 3306.17 2436.42C3310.86 2434.85 3315.8 2434.07 3321.01 2434.07C3328.11 2434.07 3334.23 2435.41 3339.37 2438.08C3344.51 2440.74 3348.75 2444.33 3352.07 2448.82C3355.39 2453.24 3357.83 2458.26 3359.39 2463.86C3361.02 2469.39 3361.83 2475.09 3361.83 2480.95C3361.83 2487.65 3360.89 2493.93 3359 2499.79C3357.11 2505.65 3354.28 2510.8 3350.5 2515.22C3346.79 2519.65 3342.2 2523.1 3336.73 2525.58C3331.27 2528.05 3324.92 2529.29 3317.69 2529.29C3310.01 2529.29 3303.3 2527.72 3297.57 2524.6C3291.85 2521.41 3287.09 2517.18 3283.32 2511.9C3279.54 2506.63 3276.71 2500.77 3274.82 2494.33C3272.93 2487.88 3271.99 2481.34 3271.99 2474.7V2466.2C3271.99 2456.17 3273 2446.34 3275.02 2436.71C3277.03 2427.07 3280.52 2418.35 3285.46 2410.54C3290.48 2402.72 3297.41 2396.51 3306.27 2391.88C3315.12 2387.26 3326.42 2384.95 3340.15 2384.95ZM3472.57 2444.91V2466.59C3472.57 2478.24 3471.53 2488.08 3469.45 2496.08C3467.37 2504.09 3464.37 2510.54 3460.46 2515.42C3456.56 2520.3 3451.84 2523.85 3446.3 2526.06C3440.84 2528.21 3434.65 2529.29 3427.75 2529.29C3422.28 2529.29 3417.24 2528.6 3412.61 2527.24C3407.99 2525.87 3403.82 2523.69 3400.11 2520.69C3396.47 2517.63 3393.34 2513.66 3390.74 2508.78C3388.13 2503.9 3386.15 2497.97 3384.78 2491.01C3383.41 2484.04 3382.73 2475.9 3382.73 2466.59V2444.91C3382.73 2433.26 3383.77 2423.49 3385.86 2415.61C3388 2407.74 3391.03 2401.42 3394.94 2396.67C3398.84 2391.85 3403.53 2388.4 3409 2386.32C3414.53 2384.23 3420.72 2383.19 3427.55 2383.19C3433.09 2383.19 3438.17 2383.88 3442.79 2385.24C3447.48 2386.55 3451.64 2388.66 3455.29 2391.59C3458.93 2394.46 3462.03 2398.3 3464.57 2403.11C3467.17 2407.87 3469.16 2413.69 3470.52 2420.59C3471.89 2427.5 3472.57 2435.6 3472.57 2444.91ZM3454.41 2469.52V2441.88C3454.41 2435.5 3454.02 2429.9 3453.24 2425.09C3452.52 2420.2 3451.45 2416.04 3450.02 2412.59C3448.58 2409.14 3446.76 2406.34 3444.55 2404.19C3442.4 2402.04 3439.89 2400.48 3437.03 2399.5C3434.23 2398.46 3431.07 2397.94 3427.55 2397.94C3423.26 2397.94 3419.45 2398.75 3416.13 2400.38C3412.81 2401.94 3410.01 2404.45 3407.73 2407.9C3405.52 2411.35 3403.82 2415.87 3402.65 2421.47C3401.48 2427.07 3400.89 2433.88 3400.89 2441.88V2469.52C3400.89 2475.9 3401.25 2481.53 3401.97 2486.42C3402.75 2491.3 3403.89 2495.53 3405.39 2499.11C3406.88 2502.63 3408.71 2505.52 3410.86 2507.8C3413 2510.08 3415.48 2511.77 3418.28 2512.88C3421.14 2513.92 3424.3 2514.44 3427.75 2514.44C3432.18 2514.44 3436.05 2513.6 3439.37 2511.9C3442.69 2510.21 3445.46 2507.57 3447.67 2503.99C3449.95 2500.35 3451.64 2495.69 3452.75 2490.03C3453.86 2484.3 3454.41 2477.46 3454.41 2469.52ZM3585.07 2444.91V2466.59C3585.07 2478.24 3584.03 2488.08 3581.95 2496.08C3579.87 2504.09 3576.87 2510.54 3572.96 2515.42C3569.06 2520.3 3564.34 2523.85 3558.8 2526.06C3553.34 2528.21 3547.15 2529.29 3540.25 2529.29C3534.78 2529.29 3529.74 2528.6 3525.11 2527.24C3520.49 2525.87 3516.32 2523.69 3512.61 2520.69C3508.97 2517.63 3505.84 2513.66 3503.24 2508.78C3500.63 2503.9 3498.65 2497.97 3497.28 2491.01C3495.91 2484.04 3495.23 2475.9 3495.23 2466.59V2444.91C3495.23 2433.26 3496.27 2423.49 3498.36 2415.61C3500.5 2407.74 3503.53 2401.42 3507.44 2396.67C3511.34 2391.85 3516.03 2388.4 3521.5 2386.32C3527.03 2384.23 3533.22 2383.19 3540.05 2383.19C3545.59 2383.19 3550.67 2383.88 3555.29 2385.24C3559.98 2386.55 3564.14 2388.66 3567.79 2391.59C3571.43 2394.46 3574.53 2398.3 3577.07 2403.11C3579.67 2407.87 3581.66 2413.69 3583.02 2420.59C3584.39 2427.5 3585.07 2435.6 3585.07 2444.91ZM3566.91 2469.52V2441.88C3566.91 2435.5 3566.52 2429.9 3565.74 2425.09C3565.02 2420.2 3563.95 2416.04 3562.52 2412.59C3561.08 2409.14 3559.26 2406.34 3557.05 2404.19C3554.9 2402.04 3552.39 2400.48 3549.53 2399.5C3546.73 2398.46 3543.57 2397.94 3540.05 2397.94C3535.76 2397.94 3531.95 2398.75 3528.63 2400.38C3525.31 2401.94 3522.51 2404.45 3520.23 2407.9C3518.02 2411.35 3516.32 2415.87 3515.15 2421.47C3513.98 2427.07 3513.39 2433.88 3513.39 2441.88V2469.52C3513.39 2475.9 3513.75 2481.53 3514.47 2486.42C3515.25 2491.3 3516.39 2495.53 3517.89 2499.11C3519.38 2502.63 3521.21 2505.52 3523.36 2507.8C3525.5 2510.08 3527.98 2511.77 3530.78 2512.88C3533.64 2513.92 3536.8 2514.44 3540.25 2514.44C3544.68 2514.44 3548.55 2513.6 3551.87 2511.9C3555.19 2510.21 3557.96 2507.57 3560.17 2503.99C3562.45 2500.35 3564.14 2495.69 3565.25 2490.03C3566.36 2484.3 3566.91 2477.46 3566.91 2469.52ZM3697.57 2444.91V2466.59C3697.57 2478.24 3696.53 2488.08 3694.45 2496.08C3692.37 2504.09 3689.37 2510.54 3685.46 2515.42C3681.56 2520.3 3676.84 2523.85 3671.3 2526.06C3665.84 2528.21 3659.65 2529.29 3652.75 2529.29C3647.28 2529.29 3642.24 2528.6 3637.61 2527.24C3632.99 2525.87 3628.82 2523.69 3625.11 2520.69C3621.47 2517.63 3618.34 2513.66 3615.74 2508.78C3613.13 2503.9 3611.15 2497.97 3609.78 2491.01C3608.41 2484.04 3607.73 2475.9 3607.73 2466.59V2444.91C3607.73 2433.26 3608.77 2423.49 3610.86 2415.61C3613 2407.74 3616.03 2401.42 3619.94 2396.67C3623.84 2391.85 3628.53 2388.4 3634 2386.32C3639.53 2384.23 3645.72 2383.19 3652.55 2383.19C3658.09 2383.19 3663.17 2383.88 3667.79 2385.24C3672.48 2386.55 3676.64 2388.66 3680.29 2391.59C3683.93 2394.46 3687.03 2398.3 3689.57 2403.11C3692.17 2407.87 3694.16 2413.69 3695.52 2420.59C3696.89 2427.5 3697.57 2435.6 3697.57 2444.91ZM3679.41 2469.52V2441.88C3679.41 2435.5 3679.02 2429.9 3678.24 2425.09C3677.52 2420.2 3676.45 2416.04 3675.02 2412.59C3673.58 2409.14 3671.76 2406.34 3669.55 2404.19C3667.4 2402.04 3664.89 2400.48 3662.03 2399.5C3659.23 2398.46 3656.07 2397.94 3652.55 2397.94C3648.26 2397.94 3644.45 2398.75 3641.13 2400.38C3637.81 2401.94 3635.01 2404.45 3632.73 2407.9C3630.52 2411.35 3628.82 2415.87 3627.65 2421.47C3626.48 2427.07 3625.89 2433.88 3625.89 2441.88V2469.52C3625.89 2475.9 3626.25 2481.53 3626.97 2486.42C3627.75 2491.3 3628.89 2495.53 3630.39 2499.11C3631.88 2502.63 3633.71 2505.52 3635.86 2507.8C3638 2510.08 3640.48 2511.77 3643.28 2512.88C3646.14 2513.92 3649.3 2514.44 3652.75 2514.44C3657.18 2514.44 3661.05 2513.6 3664.37 2511.9C3667.69 2510.21 3670.46 2507.57 3672.67 2503.99C3674.95 2500.35 3676.64 2495.69 3677.75 2490.03C3678.86 2484.3 3679.41 2477.46 3679.41 2469.52Z" fill="black"/>
<path d="M1147.86 2675.03V2818H1129.79V2697.59L1093.37 2710.87V2694.56L1145.03 2675.03H1147.86ZM1290.24 2735.58V2757.26C1290.24 2768.91 1289.2 2778.74 1287.12 2786.75C1285.03 2794.76 1282.04 2801.2 1278.13 2806.09C1274.23 2810.97 1269.51 2814.52 1263.97 2816.73C1258.5 2818.88 1252.32 2819.95 1245.42 2819.95C1239.95 2819.95 1234.9 2819.27 1230.28 2817.9C1225.66 2816.54 1221.49 2814.35 1217.78 2811.36C1214.13 2808.3 1211.01 2804.33 1208.4 2799.45C1205.8 2794.56 1203.81 2788.64 1202.45 2781.67C1201.08 2774.71 1200.4 2766.57 1200.4 2757.26V2735.58C1200.4 2723.92 1201.44 2714.16 1203.52 2706.28C1205.67 2698.4 1208.7 2692.09 1212.6 2687.34C1216.51 2682.52 1221.2 2679.07 1226.67 2676.98C1232.2 2674.9 1238.39 2673.86 1245.22 2673.86C1250.76 2673.86 1255.83 2674.54 1260.46 2675.91C1265.14 2677.21 1269.31 2679.33 1272.96 2682.26C1276.6 2685.12 1279.69 2688.96 1282.23 2693.78C1284.84 2698.53 1286.82 2704.36 1288.19 2711.26C1289.56 2718.16 1290.24 2726.27 1290.24 2735.58ZM1272.08 2760.19V2732.55C1272.08 2726.17 1271.69 2720.57 1270.9 2715.75C1270.19 2710.87 1269.11 2706.7 1267.68 2703.25C1266.25 2699.8 1264.43 2697 1262.21 2694.86C1260.06 2692.71 1257.56 2691.14 1254.69 2690.17C1251.89 2689.13 1248.74 2688.61 1245.22 2688.61C1240.92 2688.61 1237.12 2689.42 1233.8 2691.05C1230.48 2692.61 1227.68 2695.12 1225.4 2698.57C1223.18 2702.02 1221.49 2706.54 1220.32 2712.14C1219.15 2717.74 1218.56 2724.54 1218.56 2732.55V2760.19C1218.56 2766.57 1218.92 2772.2 1219.64 2777.08C1220.42 2781.96 1221.56 2786.2 1223.05 2789.78C1224.55 2793.29 1226.37 2796.19 1228.52 2798.47C1230.67 2800.75 1233.14 2802.44 1235.94 2803.55C1238.81 2804.59 1241.97 2805.11 1245.42 2805.11C1249.84 2805.11 1253.72 2804.26 1257.04 2802.57C1260.36 2800.88 1263.12 2798.24 1265.34 2794.66C1267.62 2791.01 1269.31 2786.36 1270.42 2780.7C1271.52 2774.97 1272.08 2768.13 1272.08 2760.19ZM1402.74 2735.58V2757.26C1402.74 2768.91 1401.7 2778.74 1399.62 2786.75C1397.53 2794.76 1394.54 2801.2 1390.63 2806.09C1386.73 2810.97 1382.01 2814.52 1376.47 2816.73C1371 2818.88 1364.82 2819.95 1357.92 2819.95C1352.45 2819.95 1347.4 2819.27 1342.78 2817.9C1338.16 2816.54 1333.99 2814.35 1330.28 2811.36C1326.63 2808.3 1323.51 2804.33 1320.9 2799.45C1318.3 2794.56 1316.31 2788.64 1314.95 2781.67C1313.58 2774.71 1312.9 2766.57 1312.9 2757.26V2735.58C1312.9 2723.92 1313.94 2714.16 1316.02 2706.28C1318.17 2698.4 1321.2 2692.09 1325.1 2687.34C1329.01 2682.52 1333.7 2679.07 1339.17 2676.98C1344.7 2674.9 1350.89 2673.86 1357.72 2673.86C1363.26 2673.86 1368.33 2674.54 1372.96 2675.91C1377.64 2677.21 1381.81 2679.33 1385.46 2682.26C1389.1 2685.12 1392.19 2688.96 1394.73 2693.78C1397.34 2698.53 1399.32 2704.36 1400.69 2711.26C1402.06 2718.16 1402.74 2726.27 1402.74 2735.58ZM1384.58 2760.19V2732.55C1384.58 2726.17 1384.19 2720.57 1383.4 2715.75C1382.69 2710.87 1381.61 2706.7 1380.18 2703.25C1378.75 2699.8 1376.93 2697 1374.71 2694.86C1372.56 2692.71 1370.06 2691.14 1367.19 2690.17C1364.39 2689.13 1361.24 2688.61 1357.72 2688.61C1353.42 2688.61 1349.62 2689.42 1346.3 2691.05C1342.98 2692.61 1340.18 2695.12 1337.9 2698.57C1335.68 2702.02 1333.99 2706.54 1332.82 2712.14C1331.65 2717.74 1331.06 2724.54 1331.06 2732.55V2760.19C1331.06 2766.57 1331.42 2772.2 1332.14 2777.08C1332.92 2781.96 1334.06 2786.2 1335.55 2789.78C1337.05 2793.29 1338.87 2796.19 1341.02 2798.47C1343.17 2800.75 1345.64 2802.44 1348.44 2803.55C1351.31 2804.59 1354.47 2805.11 1357.92 2805.11C1362.34 2805.11 1366.22 2804.26 1369.54 2802.57C1372.86 2800.88 1375.62 2798.24 1377.84 2794.66C1380.12 2791.01 1381.81 2786.36 1382.92 2780.7C1384.02 2774.97 1384.58 2768.13 1384.58 2760.19ZM1515.24 2735.58V2757.26C1515.24 2768.91 1514.2 2778.74 1512.12 2786.75C1510.03 2794.76 1507.04 2801.2 1503.13 2806.09C1499.23 2810.97 1494.51 2814.52 1488.97 2816.73C1483.5 2818.88 1477.32 2819.95 1470.42 2819.95C1464.95 2819.95 1459.9 2819.27 1455.28 2817.9C1450.66 2816.54 1446.49 2814.35 1442.78 2811.36C1439.13 2808.3 1436.01 2804.33 1433.4 2799.45C1430.8 2794.56 1428.81 2788.64 1427.45 2781.67C1426.08 2774.71 1425.4 2766.57 1425.4 2757.26V2735.58C1425.4 2723.92 1426.44 2714.16 1428.52 2706.28C1430.67 2698.4 1433.7 2692.09 1437.6 2687.34C1441.51 2682.52 1446.2 2679.07 1451.67 2676.98C1457.2 2674.9 1463.39 2673.86 1470.22 2673.86C1475.76 2673.86 1480.83 2674.54 1485.46 2675.91C1490.14 2677.21 1494.31 2679.33 1497.96 2682.26C1501.6 2685.12 1504.69 2688.96 1507.23 2693.78C1509.84 2698.53 1511.82 2704.36 1513.19 2711.26C1514.56 2718.16 1515.24 2726.27 1515.24 2735.58ZM1497.08 2760.19V2732.55C1497.08 2726.17 1496.69 2720.57 1495.9 2715.75C1495.19 2710.87 1494.11 2706.7 1492.68 2703.25C1491.25 2699.8 1489.43 2697 1487.21 2694.86C1485.06 2692.71 1482.56 2691.14 1479.69 2690.17C1476.89 2689.13 1473.74 2688.61 1470.22 2688.61C1465.92 2688.61 1462.12 2689.42 1458.8 2691.05C1455.48 2692.61 1452.68 2695.12 1450.4 2698.57C1448.18 2702.02 1446.49 2706.54 1445.32 2712.14C1444.15 2717.74 1443.56 2724.54 1443.56 2732.55V2760.19C1443.56 2766.57 1443.92 2772.2 1444.64 2777.08C1445.42 2781.96 1446.56 2786.2 1448.05 2789.78C1449.55 2793.29 1451.37 2796.19 1453.52 2798.47C1455.67 2800.75 1458.14 2802.44 1460.94 2803.55C1463.81 2804.59 1466.97 2805.11 1470.42 2805.11C1474.84 2805.11 1478.72 2804.26 1482.04 2802.57C1485.36 2800.88 1488.12 2798.24 1490.34 2794.66C1492.62 2791.01 1494.31 2786.36 1495.42 2780.7C1496.52 2774.97 1497.08 2768.13 1497.08 2760.19Z" fill="black"/>
<path d="M681.377 3412.7V3555.67H663.311V3435.26L626.885 3448.54V3432.23L678.545 3412.7H681.377ZM823.76 3473.24V3494.92C823.76 3506.58 822.718 3516.41 820.635 3524.42C818.551 3532.42 815.557 3538.87 811.65 3543.75C807.744 3548.64 803.024 3552.18 797.49 3554.4C792.021 3556.55 785.837 3557.62 778.936 3557.62C773.467 3557.62 768.421 3556.94 763.799 3555.57C759.176 3554.2 755.01 3552.02 751.299 3549.03C747.653 3545.97 744.528 3541.99 741.924 3537.11C739.32 3532.23 737.334 3526.3 735.967 3519.34C734.6 3512.37 733.916 3504.23 733.916 3494.92V3473.24C733.916 3461.59 734.958 3451.83 737.041 3443.95C739.189 3436.07 742.217 3429.76 746.123 3425C750.029 3420.18 754.717 3416.73 760.186 3414.65C765.719 3412.57 771.904 3411.53 778.74 3411.53C784.274 3411.53 789.352 3412.21 793.975 3413.58C798.662 3414.88 802.829 3416.99 806.475 3419.92C810.12 3422.79 813.213 3426.63 815.752 3431.45C818.356 3436.2 820.342 3442.03 821.709 3448.93C823.076 3455.83 823.76 3463.93 823.76 3473.24ZM805.596 3497.85V3470.22C805.596 3463.84 805.205 3458.24 804.424 3453.42C803.708 3448.54 802.633 3444.37 801.201 3440.92C799.769 3437.47 797.946 3434.67 795.732 3432.52C793.584 3430.37 791.077 3428.81 788.213 3427.83C785.413 3426.79 782.256 3426.27 778.74 3426.27C774.443 3426.27 770.635 3427.09 767.314 3428.71C763.994 3430.28 761.195 3432.78 758.916 3436.23C756.702 3439.68 755.01 3444.21 753.838 3449.81C752.666 3455.41 752.08 3462.21 752.08 3470.22V3497.85C752.08 3504.23 752.438 3509.87 753.154 3514.75C753.936 3519.63 755.075 3523.86 756.572 3527.44C758.07 3530.96 759.893 3533.86 762.041 3536.14C764.189 3538.41 766.663 3540.11 769.463 3541.21C772.327 3542.26 775.485 3542.78 778.936 3542.78C783.363 3542.78 787.236 3541.93 790.557 3540.24C793.877 3538.54 796.644 3535.91 798.857 3532.33C801.136 3528.68 802.829 3524.03 803.936 3518.36C805.042 3512.63 805.596 3505.8 805.596 3497.85ZM936.26 3473.24V3494.92C936.26 3506.58 935.218 3516.41 933.135 3524.42C931.051 3532.42 928.057 3538.87 924.15 3543.75C920.244 3548.64 915.524 3552.18 909.99 3554.4C904.521 3556.55 898.337 3557.62 891.436 3557.62C885.967 3557.62 880.921 3556.94 876.299 3555.57C871.676 3554.2 867.51 3552.02 863.799 3549.03C860.153 3545.97 857.028 3541.99 854.424 3537.11C851.82 3532.23 849.834 3526.3 848.467 3519.34C847.1 3512.37 846.416 3504.23 846.416 3494.92V3473.24C846.416 3461.59 847.458 3451.83 849.541 3443.95C851.689 3436.07 854.717 3429.76 858.623 3425C862.529 3420.18 867.217 3416.73 872.686 3414.65C878.219 3412.57 884.404 3411.53 891.24 3411.53C896.774 3411.53 901.852 3412.21 906.475 3413.58C911.162 3414.88 915.329 3416.99 918.975 3419.92C922.62 3422.79 925.713 3426.63 928.252 3431.45C930.856 3436.2 932.842 3442.03 934.209 3448.93C935.576 3455.83 936.26 3463.93 936.26 3473.24ZM918.096 3497.85V3470.22C918.096 3463.84 917.705 3458.24 916.924 3453.42C916.208 3448.54 915.133 3444.37 913.701 3440.92C912.269 3437.47 910.446 3434.67 908.232 3432.52C906.084 3430.37 903.577 3428.81 900.713 3427.83C897.913 3426.79 894.756 3426.27 891.24 3426.27C886.943 3426.27 883.135 3427.09 879.814 3428.71C876.494 3430.28 873.695 3432.78 871.416 3436.23C869.202 3439.68 867.51 3444.21 866.338 3449.81C865.166 3455.41 864.58 3462.21 864.58 3470.22V3497.85C864.58 3504.23 864.938 3509.87 865.654 3514.75C866.436 3519.63 867.575 3523.86 869.072 3527.44C870.57 3530.96 872.393 3533.86 874.541 3536.14C876.689 3538.41 879.163 3540.11 881.963 3541.21C884.827 3542.26 887.985 3542.78 891.436 3542.78C895.863 3542.78 899.736 3541.93 903.057 3540.24C906.377 3538.54 909.144 3535.91 911.357 3532.33C913.636 3528.68 915.329 3524.03 916.436 3518.36C917.542 3512.63 918.096 3505.8 918.096 3497.85ZM1048.76 3473.24V3494.92C1048.76 3506.58 1047.72 3516.41 1045.63 3524.42C1043.55 3532.42 1040.56 3538.87 1036.65 3543.75C1032.74 3548.64 1028.02 3552.18 1022.49 3554.4C1017.02 3556.55 1010.84 3557.62 1003.94 3557.62C998.467 3557.62 993.421 3556.94 988.799 3555.57C984.176 3554.2 980.01 3552.02 976.299 3549.03C972.653 3545.97 969.528 3541.99 966.924 3537.11C964.32 3532.23 962.334 3526.3 960.967 3519.34C959.6 3512.37 958.916 3504.23 958.916 3494.92V3473.24C958.916 3461.59 959.958 3451.83 962.041 3443.95C964.189 3436.07 967.217 3429.76 971.123 3425C975.029 3420.18 979.717 3416.73 985.186 3414.65C990.719 3412.57 996.904 3411.53 1003.74 3411.53C1009.27 3411.53 1014.35 3412.21 1018.97 3413.58C1023.66 3414.88 1027.83 3416.99 1031.47 3419.92C1035.12 3422.79 1038.21 3426.63 1040.75 3431.45C1043.36 3436.2 1045.34 3442.03 1046.71 3448.93C1048.08 3455.83 1048.76 3463.93 1048.76 3473.24ZM1030.6 3497.85V3470.22C1030.6 3463.84 1030.21 3458.24 1029.42 3453.42C1028.71 3448.54 1027.63 3444.37 1026.2 3440.92C1024.77 3437.47 1022.95 3434.67 1020.73 3432.52C1018.58 3430.37 1016.08 3428.81 1013.21 3427.83C1010.41 3426.79 1007.26 3426.27 1003.74 3426.27C999.443 3426.27 995.635 3427.09 992.314 3428.71C988.994 3430.28 986.195 3432.78 983.916 3436.23C981.702 3439.68 980.01 3444.21 978.838 3449.81C977.666 3455.41 977.08 3462.21 977.08 3470.22V3497.85C977.08 3504.23 977.438 3509.87 978.154 3514.75C978.936 3519.63 980.075 3523.86 981.572 3527.44C983.07 3530.96 984.893 3533.86 987.041 3536.14C989.189 3538.41 991.663 3540.11 994.463 3541.21C997.327 3542.26 1000.49 3542.78 1003.94 3542.78C1008.36 3542.78 1012.24 3541.93 1015.56 3540.24C1018.88 3538.54 1021.64 3535.91 1023.86 3532.33C1026.14 3528.68 1027.83 3524.03 1028.94 3518.36C1030.04 3512.63 1030.6 3505.8 1030.6 3497.85Z" fill="black"/>
<path d="M4378.49 6752.31V6841.67H4367.2V6766.41L4344.44 6774.71V6764.52L4376.72 6752.31H4378.49ZM4467.48 6790.15V6803.7C4467.48 6810.99 4466.83 6817.13 4465.53 6822.14C4464.23 6827.14 4462.36 6831.17 4459.92 6834.22C4457.47 6837.27 4454.52 6839.49 4451.07 6840.87C4447.65 6842.22 4443.78 6842.89 4439.47 6842.89C4436.05 6842.89 4432.9 6842.46 4430.01 6841.61C4427.12 6840.75 4424.52 6839.39 4422.2 6837.52C4419.92 6835.6 4417.96 6833.12 4416.34 6830.07C4414.71 6827.02 4413.47 6823.32 4412.61 6818.96C4411.76 6814.61 4411.33 6809.52 4411.33 6803.7V6790.15C4411.33 6782.87 4411.98 6776.77 4413.28 6771.84C4414.63 6766.92 4416.52 6762.97 4418.96 6760C4421.4 6756.99 4424.33 6754.83 4427.75 6753.53C4431.21 6752.23 4435.07 6751.58 4439.35 6751.58C4442.81 6751.58 4445.98 6752.01 4448.87 6752.86C4451.8 6753.67 4454.4 6755 4456.68 6756.83C4458.96 6758.62 4460.89 6761.02 4462.48 6764.03C4464.11 6767 4465.35 6770.64 4466.2 6774.96C4467.06 6779.27 4467.48 6784.33 4467.48 6790.15ZM4456.13 6805.53V6788.26C4456.13 6784.27 4455.89 6780.77 4455.4 6777.76C4454.95 6774.71 4454.28 6772.11 4453.38 6769.95C4452.49 6767.79 4451.35 6766.04 4449.97 6764.7C4448.62 6763.36 4447.06 6762.38 4445.27 6761.77C4443.52 6761.12 4441.54 6760.79 4439.35 6760.79C4436.66 6760.79 4434.28 6761.3 4432.21 6762.32C4430.13 6763.3 4428.38 6764.86 4426.96 6767.02C4425.57 6769.18 4424.52 6772.01 4423.78 6775.5C4423.05 6779 4422.68 6783.26 4422.68 6788.26V6805.53C4422.68 6809.52 4422.91 6813.04 4423.36 6816.09C4423.84 6819.14 4424.56 6821.79 4425.49 6824.03C4426.43 6826.22 4427.57 6828.04 4428.91 6829.46C4430.25 6830.88 4431.8 6831.94 4433.55 6832.63C4435.34 6833.28 4437.31 6833.61 4439.47 6833.61C4442.24 6833.61 4444.66 6833.08 4446.73 6832.02C4448.81 6830.97 4450.54 6829.32 4451.92 6827.08C4453.34 6824.8 4454.4 6821.89 4455.09 6818.35C4455.79 6814.77 4456.13 6810.5 4456.13 6805.53Z" fill="black"/>
<path d="M9842.86 5901.01H9850.92C9854.87 5901.01 9858.12 5900.36 9860.69 5899.06C9863.29 5897.72 9865.22 5895.91 9866.49 5893.63C9867.79 5891.31 9868.44 5888.7 9868.44 5885.81C9868.44 5882.4 9867.87 5879.53 9866.73 5877.21C9865.59 5874.89 9863.88 5873.14 9861.6 5871.96C9859.32 5870.78 9856.43 5870.19 9852.94 5870.19C9849.76 5870.19 9846.95 5870.82 9844.51 5872.08C9842.11 5873.3 9840.22 5875.05 9838.84 5877.33C9837.49 5879.61 9836.82 5882.29 9836.82 5885.39H9825.53C9825.53 5880.87 9826.67 5876.76 9828.95 5873.06C9831.23 5869.36 9834.42 5866.41 9838.53 5864.21C9842.68 5862.01 9847.48 5860.91 9852.94 5860.91C9858.31 5860.91 9863.01 5861.87 9867.03 5863.78C9871.06 5865.65 9874.2 5868.46 9876.43 5872.2C9878.67 5875.91 9879.79 5880.52 9879.79 5886.06C9879.79 5888.3 9879.26 5890.7 9878.2 5893.26C9877.19 5895.78 9875.58 5898.14 9873.38 5900.34C9871.23 5902.54 9868.42 5904.35 9864.96 5905.77C9861.5 5907.16 9857.35 5907.85 9852.51 5907.85H9842.86V5901.01ZM9842.86 5910.29V5903.51H9852.51C9858.16 5903.51 9862.84 5904.19 9866.55 5905.53C9870.25 5906.87 9873.16 5908.66 9875.27 5910.9C9877.43 5913.14 9878.94 5915.6 9879.79 5918.29C9880.69 5920.93 9881.13 5923.57 9881.13 5926.22C9881.13 5930.37 9880.42 5934.05 9879 5937.27C9877.61 5940.48 9875.64 5943.21 9873.08 5945.45C9870.55 5947.68 9867.58 5949.37 9864.17 5950.51C9860.75 5951.65 9857.02 5952.22 9853 5952.22C9849.13 5952.22 9845.49 5951.67 9842.07 5950.57C9838.69 5949.47 9835.7 5947.89 9833.1 5945.81C9830.49 5943.7 9828.46 5941.11 9827 5938.06C9825.53 5934.97 9824.8 5931.45 9824.8 5927.5H9836.09C9836.09 5930.59 9836.76 5933.3 9838.1 5935.62C9839.49 5937.94 9841.44 5939.75 9843.96 5941.05C9846.53 5942.31 9849.54 5942.94 9853 5942.94C9856.46 5942.94 9859.43 5942.35 9861.91 5941.17C9864.43 5939.95 9866.36 5938.12 9867.71 5935.68C9869.09 5933.24 9869.78 5930.17 9869.78 5926.46C9869.78 5922.76 9869.01 5919.73 9867.46 5917.37C9865.92 5914.97 9863.72 5913.2 9860.87 5912.06C9858.06 5910.88 9854.75 5910.29 9850.92 5910.29H9842.86ZM9952.48 5899.49V5913.04C9952.48 5920.32 9951.83 5926.46 9950.53 5931.47C9949.23 5936.47 9947.36 5940.5 9944.92 5943.55C9942.47 5946.61 9939.52 5948.82 9936.07 5950.21C9932.65 5951.55 9928.78 5952.22 9924.47 5952.22C9921.05 5952.22 9917.9 5951.79 9915.01 5950.94C9912.12 5950.08 9909.52 5948.72 9907.2 5946.85C9904.92 5944.94 9902.96 5942.46 9901.34 5939.4C9899.71 5936.35 9898.47 5932.65 9897.61 5928.29C9896.76 5923.94 9896.33 5918.85 9896.33 5913.04V5899.49C9896.33 5892.2 9896.98 5886.1 9898.28 5881.18C9899.63 5876.25 9901.52 5872.31 9903.96 5869.33C9906.4 5866.32 9909.33 5864.17 9912.75 5862.87C9916.21 5861.56 9920.07 5860.91 9924.35 5860.91C9927.81 5860.91 9930.98 5861.34 9933.87 5862.19C9936.8 5863.01 9939.4 5864.33 9941.68 5866.16C9943.96 5867.95 9945.89 5870.35 9947.48 5873.36C9949.11 5876.33 9950.35 5879.98 9951.2 5884.29C9952.06 5888.6 9952.48 5893.67 9952.48 5899.49ZM9941.13 5914.87V5897.59C9941.13 5893.61 9940.89 5890.11 9940.4 5887.1C9939.95 5884.04 9939.28 5881.44 9938.38 5879.28C9937.49 5877.13 9936.35 5875.38 9934.97 5874.03C9933.62 5872.69 9932.06 5871.72 9930.27 5871.1C9928.52 5870.45 9926.54 5870.13 9924.35 5870.13C9921.66 5870.13 9919.28 5870.64 9917.21 5871.65C9915.13 5872.63 9913.38 5874.2 9911.96 5876.35C9910.57 5878.51 9909.52 5881.34 9908.78 5884.84C9908.05 5888.34 9907.68 5892.59 9907.68 5897.59V5914.87C9907.68 5918.85 9907.91 5922.37 9908.36 5925.43C9908.84 5928.48 9909.56 5931.12 9910.49 5933.36C9911.43 5935.56 9912.57 5937.37 9913.91 5938.79C9915.25 5940.22 9916.8 5941.28 9918.55 5941.97C9920.34 5942.62 9922.31 5942.94 9924.47 5942.94C9927.24 5942.94 9929.66 5942.41 9931.73 5941.36C9933.81 5940.3 9935.54 5938.65 9936.92 5936.41C9938.34 5934.13 9939.4 5931.22 9940.09 5927.68C9940.79 5924.1 9941.13 5919.83 9941.13 5914.87ZM10022.8 5899.49V5913.04C10022.8 5920.32 10022.1 5926.46 10020.8 5931.47C10019.5 5936.47 10017.7 5940.5 10015.2 5943.55C10012.8 5946.61 10009.8 5948.82 10006.4 5950.21C10003 5951.55 9999.09 5952.22 9994.78 5952.22C9991.36 5952.22 9988.21 5951.79 9985.32 5950.94C9982.43 5950.08 9979.83 5948.72 9977.51 5946.85C9975.23 5944.94 9973.28 5942.46 9971.65 5939.4C9970.02 5936.35 9968.78 5932.65 9967.93 5928.29C9967.07 5923.94 9966.64 5918.85 9966.64 5913.04V5899.49C9966.64 5892.2 9967.3 5886.1 9968.6 5881.18C9969.94 5876.25 9971.83 5872.31 9974.27 5869.33C9976.71 5866.32 9979.64 5864.17 9983.06 5862.87C9986.52 5861.56 9990.39 5860.91 9994.66 5860.91C9998.12 5860.91 10001.3 5861.34 10004.2 5862.19C10007.1 5863.01 10009.7 5864.33 10012 5866.16C10014.3 5867.95 10016.2 5870.35 10017.8 5873.36C10019.4 5876.33 10020.7 5879.98 10021.5 5884.29C10022.4 5888.6 10022.8 5893.67 10022.8 5899.49ZM10011.4 5914.87V5897.59C10011.4 5893.61 10011.2 5890.11 10010.7 5887.1C10010.3 5884.04 10009.6 5881.44 10008.7 5879.28C10007.8 5877.13 10006.7 5875.38 10005.3 5874.03C10003.9 5872.69 10002.4 5871.72 10000.6 5871.1C9998.83 5870.45 9996.86 5870.13 9994.66 5870.13C9991.97 5870.13 9989.59 5870.64 9987.52 5871.65C9985.44 5872.63 9983.69 5874.2 9982.27 5876.35C9980.89 5878.51 9979.83 5881.34 9979.1 5884.84C9978.36 5888.34 9978 5892.59 9978 5897.59V5914.87C9978 5918.85 9978.22 5922.37 9978.67 5925.43C9979.16 5928.48 9979.87 5931.12 9980.8 5933.36C9981.74 5935.56 9982.88 5937.37 9984.22 5938.79C9985.56 5940.22 9987.11 5941.28 9988.86 5941.97C9990.65 5942.62 9992.62 5942.94 9994.78 5942.94C9997.55 5942.94 9999.97 5942.41 10002 5941.36C10004.1 5940.3 10005.8 5938.65 10007.2 5936.41C10008.7 5934.13 10009.7 5931.22 10010.4 5927.68C10011.1 5924.1 10011.4 5919.83 10011.4 5914.87Z" fill="black"/>
<path d="M10165.3 6202.8V6209.15L10128.4 6291.67H10116.5L10153.3 6212.08H10105.2V6202.8H10165.3ZM10233.9 6240.15V6253.7C10233.9 6260.99 10233.3 6267.13 10232 6272.14C10230.7 6277.14 10228.8 6281.17 10226.3 6284.22C10223.9 6287.27 10221 6289.49 10217.5 6290.87C10214.1 6292.22 10210.2 6292.89 10205.9 6292.89C10202.5 6292.89 10199.3 6292.46 10196.4 6291.61C10193.6 6290.75 10190.9 6289.39 10188.6 6287.52C10186.4 6285.6 10184.4 6283.12 10182.8 6280.07C10181.1 6277.02 10179.9 6273.32 10179 6268.96C10178.2 6264.61 10177.8 6259.52 10177.8 6253.7V6240.15C10177.8 6232.87 10178.4 6226.77 10179.7 6221.84C10181.1 6216.92 10183 6212.97 10185.4 6210C10187.8 6206.99 10190.8 6204.83 10194.2 6203.53C10197.6 6202.23 10201.5 6201.58 10205.8 6201.58C10209.2 6201.58 10212.4 6202.01 10215.3 6202.86C10218.2 6203.67 10220.8 6205 10223.1 6206.83C10225.4 6208.62 10227.3 6211.02 10228.9 6214.03C10230.5 6217 10231.8 6220.64 10232.6 6224.96C10233.5 6229.27 10233.9 6234.33 10233.9 6240.15ZM10222.6 6255.53V6238.26C10222.6 6234.27 10222.3 6230.77 10221.8 6227.76C10221.4 6224.71 10220.7 6222.11 10219.8 6219.95C10218.9 6217.79 10217.8 6216.04 10216.4 6214.7C10215.1 6213.36 10213.5 6212.38 10211.7 6211.77C10210 6211.12 10208 6210.79 10205.8 6210.79C10203.1 6210.79 10200.7 6211.3 10198.6 6212.32C10196.6 6213.3 10194.8 6214.86 10193.4 6217.02C10192 6219.18 10190.9 6222.01 10190.2 6225.5C10189.5 6229 10189.1 6233.26 10189.1 6238.26V6255.53C10189.1 6259.52 10189.3 6263.04 10189.8 6266.09C10190.3 6269.14 10191 6271.79 10191.9 6274.03C10192.9 6276.22 10194 6278.04 10195.3 6279.46C10196.7 6280.88 10198.2 6281.94 10200 6282.63C10201.8 6283.28 10203.7 6283.61 10205.9 6283.61C10208.7 6283.61 10211.1 6283.08 10213.2 6282.02C10215.2 6280.97 10217 6279.32 10218.4 6277.08C10219.8 6274.8 10220.8 6271.89 10221.5 6268.35C10222.2 6264.77 10222.6 6260.5 10222.6 6255.53ZM10304.2 6240.15V6253.7C10304.2 6260.99 10303.6 6267.13 10302.3 6272.14C10301 6277.14 10299.1 6281.17 10296.7 6284.22C10294.2 6287.27 10291.3 6289.49 10287.8 6290.87C10284.4 6292.22 10280.5 6292.89 10276.2 6292.89C10272.8 6292.89 10269.6 6292.46 10266.8 6291.61C10263.9 6290.75 10261.3 6289.39 10258.9 6287.52C10256.7 6285.6 10254.7 6283.12 10253.1 6280.07C10251.5 6277.02 10250.2 6273.32 10249.4 6268.96C10248.5 6264.61 10248.1 6259.52 10248.1 6253.7V6240.15C10248.1 6232.87 10248.7 6226.77 10250 6221.84C10251.4 6216.92 10253.3 6212.97 10255.7 6210C10258.1 6206.99 10261.1 6204.83 10264.5 6203.53C10268 6202.23 10271.8 6201.58 10276.1 6201.58C10279.6 6201.58 10282.7 6202.01 10285.6 6202.86C10288.5 6203.67 10291.1 6205 10293.4 6206.83C10295.7 6208.62 10297.6 6211.02 10299.2 6214.03C10300.9 6217 10302.1 6220.64 10302.9 6224.96C10303.8 6229.27 10304.2 6234.33 10304.2 6240.15ZM10292.9 6255.53V6238.26C10292.9 6234.27 10292.6 6230.77 10292.1 6227.76C10291.7 6224.71 10291 6222.11 10290.1 6219.95C10289.2 6217.79 10288.1 6216.04 10286.7 6214.7C10285.4 6213.36 10283.8 6212.38 10282 6211.77C10280.3 6211.12 10278.3 6210.79 10276.1 6210.79C10273.4 6210.79 10271 6211.3 10269 6212.32C10266.9 6213.3 10265.1 6214.86 10263.7 6217.02C10262.3 6219.18 10261.3 6222.01 10260.5 6225.5C10259.8 6229 10259.4 6233.26 10259.4 6238.26V6255.53C10259.4 6259.52 10259.7 6263.04 10260.1 6266.09C10260.6 6269.14 10261.3 6271.79 10262.2 6274.03C10263.2 6276.22 10264.3 6278.04 10265.7 6279.46C10267 6280.88 10268.5 6281.94 10270.3 6282.63C10272.1 6283.28 10274.1 6283.61 10276.2 6283.61C10279 6283.61 10281.4 6283.08 10283.5 6282.02C10285.6 6280.97 10287.3 6279.32 10288.7 6277.08C10290.1 6274.8 10291.1 6271.89 10291.8 6268.35C10292.5 6264.77 10292.9 6260.5 10292.9 6255.53Z" fill="black"/>
<path d="M5300.44 3468.81V3611.78H5282.37V3491.37L5245.95 3504.65V3488.34L5297.61 3468.81H5300.44ZM5442.82 3529.36V3551.04C5442.82 3562.69 5441.78 3572.52 5439.7 3580.53C5437.61 3588.54 5434.62 3594.99 5430.71 3599.87C5426.81 3604.75 5422.09 3608.3 5416.55 3610.51C5411.08 3612.66 5404.9 3613.74 5398 3613.74C5392.53 3613.74 5387.48 3613.05 5382.86 3611.68C5378.24 3610.32 5374.07 3608.14 5370.36 3605.14C5366.72 3602.08 5363.59 3598.11 5360.99 3593.23C5358.38 3588.34 5356.4 3582.42 5355.03 3575.45C5353.66 3568.49 5352.98 3560.35 5352.98 3551.04V3529.36C5352.98 3517.71 5354.02 3507.94 5356.1 3500.06C5358.25 3492.19 5361.28 3485.87 5365.19 3481.12C5369.09 3476.3 5373.78 3472.85 5379.25 3470.77C5384.78 3468.68 5390.97 3467.64 5397.8 3467.64C5403.34 3467.64 5408.42 3468.33 5413.04 3469.69C5417.73 3470.99 5421.89 3473.11 5425.54 3476.04C5429.18 3478.9 5432.28 3482.75 5434.82 3487.56C5437.42 3492.32 5439.41 3498.14 5440.77 3505.04C5442.14 3511.94 5442.82 3520.05 5442.82 3529.36ZM5424.66 3553.97V3526.33C5424.66 3519.95 5424.27 3514.35 5423.49 3509.54C5422.77 3504.65 5421.7 3500.49 5420.26 3497.04C5418.83 3493.59 5417.01 3490.79 5414.8 3488.64C5412.65 3486.49 5410.14 3484.93 5407.28 3483.95C5404.48 3482.91 5401.32 3482.39 5397.8 3482.39C5393.51 3482.39 5389.7 3483.2 5386.38 3484.83C5383.06 3486.39 5380.26 3488.9 5377.98 3492.35C5375.77 3495.8 5374.07 3500.32 5372.9 3505.92C5371.73 3511.52 5371.14 3518.33 5371.14 3526.33V3553.97C5371.14 3560.35 5371.5 3565.98 5372.22 3570.86C5373 3575.75 5374.14 3579.98 5375.64 3583.56C5377.13 3587.08 5378.96 3589.97 5381.1 3592.25C5383.25 3594.53 5385.73 3596.22 5388.53 3597.33C5391.39 3598.37 5394.55 3598.89 5398 3598.89C5402.43 3598.89 5406.3 3598.05 5409.62 3596.35C5412.94 3594.66 5415.71 3592.02 5417.92 3588.44C5420.2 3584.8 5421.89 3580.14 5423 3574.48C5424.11 3568.75 5424.66 3561.91 5424.66 3553.97ZM5555.32 3529.36V3551.04C5555.32 3562.69 5554.28 3572.52 5552.2 3580.53C5550.11 3588.54 5547.12 3594.99 5543.21 3599.87C5539.31 3604.75 5534.59 3608.3 5529.05 3610.51C5523.58 3612.66 5517.4 3613.74 5510.5 3613.74C5505.03 3613.74 5499.98 3613.05 5495.36 3611.68C5490.74 3610.32 5486.57 3608.14 5482.86 3605.14C5479.22 3602.08 5476.09 3598.11 5473.49 3593.23C5470.88 3588.34 5468.9 3582.42 5467.53 3575.45C5466.16 3568.49 5465.48 3560.35 5465.48 3551.04V3529.36C5465.48 3517.71 5466.52 3507.94 5468.6 3500.06C5470.75 3492.19 5473.78 3485.87 5477.69 3481.12C5481.59 3476.3 5486.28 3472.85 5491.75 3470.77C5497.28 3468.68 5503.47 3467.64 5510.3 3467.64C5515.84 3467.64 5520.92 3468.33 5525.54 3469.69C5530.23 3470.99 5534.39 3473.11 5538.04 3476.04C5541.68 3478.9 5544.78 3482.75 5547.32 3487.56C5549.92 3492.32 5551.91 3498.14 5553.27 3505.04C5554.64 3511.94 5555.32 3520.05 5555.32 3529.36ZM5537.16 3553.97V3526.33C5537.16 3519.95 5536.77 3514.35 5535.99 3509.54C5535.27 3504.65 5534.2 3500.49 5532.76 3497.04C5531.33 3493.59 5529.51 3490.79 5527.3 3488.64C5525.15 3486.49 5522.64 3484.93 5519.78 3483.95C5516.98 3482.91 5513.82 3482.39 5510.3 3482.39C5506.01 3482.39 5502.2 3483.2 5498.88 3484.83C5495.56 3486.39 5492.76 3488.9 5490.48 3492.35C5488.27 3495.8 5486.57 3500.32 5485.4 3505.92C5484.23 3511.52 5483.64 3518.33 5483.64 3526.33V3553.97C5483.64 3560.35 5484 3565.98 5484.72 3570.86C5485.5 3575.75 5486.64 3579.98 5488.14 3583.56C5489.63 3587.08 5491.46 3589.97 5493.6 3592.25C5495.75 3594.53 5498.23 3596.22 5501.03 3597.33C5503.89 3598.37 5507.05 3598.89 5510.5 3598.89C5514.93 3598.89 5518.8 3598.05 5522.12 3596.35C5525.44 3594.66 5528.21 3592.02 5530.42 3588.44C5532.7 3584.8 5534.39 3580.14 5535.5 3574.48C5536.61 3568.75 5537.16 3561.91 5537.16 3553.97ZM5667.82 3529.36V3551.04C5667.82 3562.69 5666.78 3572.52 5664.7 3580.53C5662.61 3588.54 5659.62 3594.99 5655.71 3599.87C5651.81 3604.75 5647.09 3608.3 5641.55 3610.51C5636.08 3612.66 5629.9 3613.74 5623 3613.74C5617.53 3613.74 5612.48 3613.05 5607.86 3611.68C5603.24 3610.32 5599.07 3608.14 5595.36 3605.14C5591.72 3602.08 5588.59 3598.11 5585.99 3593.23C5583.38 3588.34 5581.4 3582.42 5580.03 3575.45C5578.66 3568.49 5577.98 3560.35 5577.98 3551.04V3529.36C5577.98 3517.71 5579.02 3507.94 5581.1 3500.06C5583.25 3492.19 5586.28 3485.87 5590.19 3481.12C5594.09 3476.3 5598.78 3472.85 5604.25 3470.77C5609.78 3468.68 5615.97 3467.64 5622.8 3467.64C5628.34 3467.64 5633.42 3468.33 5638.04 3469.69C5642.73 3470.99 5646.89 3473.11 5650.54 3476.04C5654.18 3478.9 5657.28 3482.75 5659.82 3487.56C5662.42 3492.32 5664.41 3498.14 5665.77 3505.04C5667.14 3511.94 5667.82 3520.05 5667.82 3529.36ZM5649.66 3553.97V3526.33C5649.66 3519.95 5649.27 3514.35 5648.49 3509.54C5647.77 3504.65 5646.7 3500.49 5645.26 3497.04C5643.83 3493.59 5642.01 3490.79 5639.8 3488.64C5637.65 3486.49 5635.14 3484.93 5632.28 3483.95C5629.48 3482.91 5626.32 3482.39 5622.8 3482.39C5618.51 3482.39 5614.7 3483.2 5611.38 3484.83C5608.06 3486.39 5605.26 3488.9 5602.98 3492.35C5600.77 3495.8 5599.07 3500.32 5597.9 3505.92C5596.73 3511.52 5596.14 3518.33 5596.14 3526.33V3553.97C5596.14 3560.35 5596.5 3565.98 5597.22 3570.86C5598 3575.75 5599.14 3579.98 5600.64 3583.56C5602.13 3587.08 5603.96 3589.97 5606.1 3592.25C5608.25 3594.53 5610.73 3596.22 5613.53 3597.33C5616.39 3598.37 5619.55 3598.89 5623 3598.89C5627.43 3598.89 5631.3 3598.05 5634.62 3596.35C5637.94 3594.66 5640.71 3592.02 5642.92 3588.44C5645.2 3584.8 5646.89 3580.14 5648 3574.48C5649.11 3568.75 5649.66 3561.91 5649.66 3553.97Z" fill="black"/>
<path d="M1640.62 2669.41V4647.99" stroke="black" stroke-width="10"/>
<path d="M1374.9 4437.04V4451.88H1281.84V4438.89L1328.42 4387.04C1334.15 4380.66 1338.57 4375.25 1341.7 4370.83C1344.89 4366.33 1347.1 4362.33 1348.34 4358.81C1349.64 4355.23 1350.29 4351.59 1350.29 4347.88C1350.29 4343.19 1349.32 4338.96 1347.36 4335.18C1345.48 4331.34 1342.68 4328.28 1338.96 4326C1335.25 4323.72 1330.76 4322.58 1325.49 4322.58C1319.17 4322.58 1313.9 4323.82 1309.67 4326.29C1305.5 4328.7 1302.38 4332.09 1300.29 4336.45C1298.21 4340.81 1297.17 4345.83 1297.17 4351.49H1279.1C1279.1 4343.48 1280.86 4336.16 1284.38 4329.52C1287.89 4322.88 1293.1 4317.6 1300 4313.7C1306.9 4309.72 1315.4 4307.74 1325.49 4307.74C1334.47 4307.74 1342.15 4309.33 1348.54 4312.52C1354.92 4315.65 1359.8 4320.08 1363.18 4325.81C1366.63 4331.47 1368.36 4338.11 1368.36 4345.73C1368.36 4349.89 1367.64 4354.13 1366.21 4358.42C1364.84 4362.65 1362.92 4366.89 1360.45 4371.12C1358.04 4375.35 1355.21 4379.52 1351.95 4383.62C1348.76 4387.72 1345.35 4391.76 1341.7 4395.73L1303.61 4437.04H1374.9ZM1483.5 4369.46V4391.14C1483.5 4402.79 1482.45 4412.62 1480.37 4420.63C1478.29 4428.64 1475.29 4435.08 1471.39 4439.97C1467.48 4444.85 1462.76 4448.4 1457.23 4450.61C1451.76 4452.76 1445.57 4453.83 1438.67 4453.83C1433.2 4453.83 1428.16 4453.15 1423.54 4451.78C1418.91 4450.42 1414.75 4448.23 1411.04 4445.24C1407.39 4442.18 1404.26 4438.21 1401.66 4433.33C1399.06 4428.44 1397.07 4422.52 1395.7 4415.55C1394.34 4408.59 1393.65 4400.45 1393.65 4391.14V4369.46C1393.65 4357.8 1394.69 4348.04 1396.78 4340.16C1398.93 4332.28 1401.95 4325.97 1405.86 4321.22C1409.77 4316.4 1414.45 4312.95 1419.92 4310.86C1425.46 4308.78 1431.64 4307.74 1438.48 4307.74C1444.01 4307.74 1449.09 4308.42 1453.71 4309.79C1458.4 4311.09 1462.57 4313.21 1466.21 4316.14C1469.86 4319 1472.95 4322.84 1475.49 4327.66C1478.09 4332.41 1480.08 4338.24 1481.45 4345.14C1482.81 4352.04 1483.5 4360.15 1483.5 4369.46ZM1465.33 4394.07V4366.43C1465.33 4360.05 1464.94 4354.45 1464.16 4349.63C1463.44 4344.75 1462.37 4340.58 1460.94 4337.13C1459.51 4333.68 1457.68 4330.88 1455.47 4328.74C1453.32 4326.59 1450.81 4325.02 1447.95 4324.05C1445.15 4323.01 1441.99 4322.49 1438.48 4322.49C1434.18 4322.49 1430.37 4323.3 1427.05 4324.93C1423.73 4326.49 1420.93 4329 1418.65 4332.45C1416.44 4335.9 1414.75 4340.42 1413.57 4346.02C1412.4 4351.62 1411.82 4358.42 1411.82 4366.43V4394.07C1411.82 4400.45 1412.17 4406.08 1412.89 4410.96C1413.67 4415.84 1414.81 4420.08 1416.31 4423.66C1417.81 4427.17 1419.63 4430.07 1421.78 4432.35C1423.93 4434.63 1426.4 4436.32 1429.2 4437.43C1432.06 4438.47 1435.22 4438.99 1438.67 4438.99C1443.1 4438.99 1446.97 4438.14 1450.29 4436.45C1453.61 4434.76 1456.38 4432.12 1458.59 4428.54C1460.87 4424.89 1462.57 4420.24 1463.67 4414.58C1464.78 4408.85 1465.33 4402.01 1465.33 4394.07ZM1596 4369.46V4391.14C1596 4402.79 1594.95 4412.62 1592.87 4420.63C1590.79 4428.64 1587.79 4435.08 1583.89 4439.97C1579.98 4444.85 1575.26 4448.4 1569.73 4450.61C1564.26 4452.76 1558.07 4453.83 1551.17 4453.83C1545.7 4453.83 1540.66 4453.15 1536.04 4451.78C1531.41 4450.42 1527.25 4448.23 1523.54 4445.24C1519.89 4442.18 1516.76 4438.21 1514.16 4433.33C1511.56 4428.44 1509.57 4422.52 1508.2 4415.55C1506.84 4408.59 1506.15 4400.45 1506.15 4391.14V4369.46C1506.15 4357.8 1507.19 4348.04 1509.28 4340.16C1511.43 4332.28 1514.45 4325.97 1518.36 4321.22C1522.27 4316.4 1526.95 4312.95 1532.42 4310.86C1537.96 4308.78 1544.14 4307.74 1550.98 4307.74C1556.51 4307.74 1561.59 4308.42 1566.21 4309.79C1570.9 4311.09 1575.07 4313.21 1578.71 4316.14C1582.36 4319 1585.45 4322.84 1587.99 4327.66C1590.59 4332.41 1592.58 4338.24 1593.95 4345.14C1595.31 4352.04 1596 4360.15 1596 4369.46ZM1577.83 4394.07V4366.43C1577.83 4360.05 1577.44 4354.45 1576.66 4349.63C1575.94 4344.75 1574.87 4340.58 1573.44 4337.13C1572.01 4333.68 1570.18 4330.88 1567.97 4328.74C1565.82 4326.59 1563.31 4325.02 1560.45 4324.05C1557.65 4323.01 1554.49 4322.49 1550.98 4322.49C1546.68 4322.49 1542.87 4323.3 1539.55 4324.93C1536.23 4326.49 1533.43 4329 1531.15 4332.45C1528.94 4335.9 1527.25 4340.42 1526.07 4346.02C1524.9 4351.62 1524.32 4358.42 1524.32 4366.43V4394.07C1524.32 4400.45 1524.67 4406.08 1525.39 4410.96C1526.17 4415.84 1527.31 4420.08 1528.81 4423.66C1530.31 4427.17 1532.13 4430.07 1534.28 4432.35C1536.43 4434.63 1538.9 4436.32 1541.7 4437.43C1544.56 4438.47 1547.72 4438.99 1551.17 4438.99C1555.6 4438.99 1559.47 4438.14 1562.79 4436.45C1566.11 4434.76 1568.88 4432.12 1571.09 4428.54C1573.37 4424.89 1575.07 4420.24 1576.17 4414.58C1577.28 4408.85 1577.83 4402.01 1577.83 4394.07ZM1708.5 4369.46V4391.14C1708.5 4402.79 1707.45 4412.62 1705.37 4420.63C1703.29 4428.64 1700.29 4435.08 1696.39 4439.97C1692.48 4444.85 1687.76 4448.4 1682.23 4450.61C1676.76 4452.76 1670.57 4453.83 1663.67 4453.83C1658.2 4453.83 1653.16 4453.15 1648.54 4451.78C1643.91 4450.42 1639.75 4448.23 1636.04 4445.24C1632.39 4442.18 1629.26 4438.21 1626.66 4433.33C1624.06 4428.44 1622.07 4422.52 1620.7 4415.55C1619.34 4408.59 1618.65 4400.45 1618.65 4391.14V4369.46C1618.65 4357.8 1619.69 4348.04 1621.78 4340.16C1623.93 4332.28 1626.95 4325.97 1630.86 4321.22C1634.77 4316.4 1639.45 4312.95 1644.92 4310.86C1650.46 4308.78 1656.64 4307.74 1663.48 4307.74C1669.01 4307.74 1674.09 4308.42 1678.71 4309.79C1683.4 4311.09 1687.57 4313.21 1691.21 4316.14C1694.86 4319 1697.95 4322.84 1700.49 4327.66C1703.09 4332.41 1705.08 4338.24 1706.45 4345.14C1707.81 4352.04 1708.5 4360.15 1708.5 4369.46ZM1690.33 4394.07V4366.43C1690.33 4360.05 1689.94 4354.45 1689.16 4349.63C1688.44 4344.75 1687.37 4340.58 1685.94 4337.13C1684.51 4333.68 1682.68 4330.88 1680.47 4328.74C1678.32 4326.59 1675.81 4325.02 1672.95 4324.05C1670.15 4323.01 1666.99 4322.49 1663.48 4322.49C1659.18 4322.49 1655.37 4323.3 1652.05 4324.93C1648.73 4326.49 1645.93 4329 1643.65 4332.45C1641.44 4335.9 1639.75 4340.42 1638.57 4346.02C1637.4 4351.62 1636.82 4358.42 1636.82 4366.43V4394.07C1636.82 4400.45 1637.17 4406.08 1637.89 4410.96C1638.67 4415.84 1639.81 4420.08 1641.31 4423.66C1642.81 4427.17 1644.63 4430.07 1646.78 4432.35C1648.93 4434.63 1651.4 4436.32 1654.2 4437.43C1657.06 4438.47 1660.22 4438.99 1663.67 4438.99C1668.1 4438.99 1671.97 4438.14 1675.29 4436.45C1678.61 4434.76 1681.38 4432.12 1683.59 4428.54C1685.87 4424.89 1687.57 4420.24 1688.67 4414.58C1689.78 4408.85 1690.33 4402.01 1690.33 4394.07Z" fill="black"/>
<path d="M751.513 2903.25H1728.88" stroke="black" stroke-width="10"/>
<path d="M10059 3139H10259V3159H10059V3139Z" fill="#000580"/>
<path d="M10059 4159H10259V4179H10059V4159Z" fill="#000580"/>
<path d="M10239 3159H10259V4159H10239V3159Z" fill="#000580"/>
<path d="M457 4179H257V4159H457V4179Z" fill="#000580"/>
<path d="M457 3159H257V3139H457V3159Z" fill="#000580"/>
<path d="M277 4159H257L257 3159H277L277 4159Z" fill="#000580"/>
<line x1="450" y1="337.5" x2="10080" y2="337.5" stroke="black" stroke-width="25"/>
<line x1="458" y1="6977.5" x2="10058" y2="6977.5" stroke="black" stroke-width="25"/>
<line x1="446.5" y1="6990" x2="446.998" y2="4159" stroke="black" stroke-width="25"/>
<line x1="446.5" y1="3149" x2="447.5" y2="329.019" stroke="black" stroke-width="25"/>
<line x1="10071.5" y1="331" x2="10071.5" y2="3149" stroke="black" stroke-width="25"/>
<line x1="10059.5" y1="6990" x2="10059.3" y2="4159" stroke="black" stroke-width="25"/>
</g>
<defs>
<clipPath id="clip0_2_63">
<rect width="10400" height="7400" fill="white"/>
</clipPath>
</defs>
</svg>
